<svg xmlns="http://www.w3.org/2000/svg" xmlns:xlink="http://www.w3.org/1999/xlink" viewBox="0 0 556.14 806.12">
  <defs>
    <style>
      .cls-1, .cls-11, .cls-7 {
        fill: none;
      }

      .cls-2 {
        clip-path: url(#clip-path);
      }

      .cls-3 {
        fill: #edcdcd;
      }

      .cls-4 {
        fill: #e0acac;
      }

      .cls-5 {
        fill: #deaaaa;
      }

      .cls-6 {
        fill: #7d5a5a;
      }

      .cls-11, .cls-16, .cls-17, .cls-7 {
        stroke: #fff;
      }

      .cls-11, .cls-12, .cls-13, .cls-14, .cls-16, .cls-17, .cls-7 {
        stroke-miterlimit: 10;
      }

      .cls-7 {
        opacity: 0.87;
      }

      .cls-8 {
        opacity: 0.75;
      }

      .cls-16, .cls-17, .cls-9 {
        fill: #fff;
      }

      .cls-10 {
        fill: #f7ebeb;
      }

      .cls-11 {
        stroke-width: 21px;
      }

      .cls-12 {
        font-size: 33px;
      }

      .cls-12, .cls-13, .cls-14 {
        stroke: #000;
      }

      .cls-12, .cls-13, .cls-16 {
        font-family: Italic_IV25, Italic;
      }

      .cls-13 {
        font-size: 30px;
      }

      .cls-15 {
        fill: #00a035;
      }

      .cls-16 {
        font-size: 36px;
      }
    </style>
    <clipPath id="clip-path" transform="translate(61.86 69.14)">
      <rect class="cls-1" width="494.28" height="731.52"/>
    </clipPath>
  </defs>
  <g id="Card">
    <g class="cls-2">
      <rect class="cls-3" x="61.86" y="69.14" width="494.28" height="731.52"/>
      <path class="cls-4" d="M103.65,66.18c27.63-7.66,56.3-10.31,85.78-9.29,30.78,1.08,61,5.78,91.65,7.26,47.53,2.3,97.48-2.7,139.61-19.58C444.16,35.17,470.75,20,476,.76H-2.84V112.32C12,106.48,25.65,99.07,39.61,92.17,59.87,82.17,80.65,72.55,103.65,66.18Z" transform="translate(61.86 69.14)"/>
      <path class="cls-5" d="M91.57,142.46a1.2,1.2,0,0,0-.15-1.4c-1-.37-1.5,0-2.06.83-1.53-2-3.57-.51-2.8.71-2.26-.25-2.42,1.51-.16,1.5-2.06.56-1.33,2.05.36,1.77-.63.86-.11,1.39.65,1.49-1.22,3.25-3.58,6.23-5.22,9.38,0-.76,0-1.52,0-2.28.07-4.23-.22-8.46-.23-12.69,2.31,1,3.53-1.05,2.14-2.22,3-.28,2.28-2.54-.54-1.93,2.3-1.25.64-2.93-1.34-2.13.54-1.86-1.74-2.15-2.95-1.2.33-4.13.94-8.26,1.06-12.4,1.34.31,2.63-.85,2.14-2,2.87.61,3.51-1.66.58-1.92,2.81-.47,2.23-2.5,0-2.34,1.8-1.82-1.14-2.81-2.82-1.58-.94-1.7-3.85-1.73-4.25.57-2.22,0-2.84,1.63-1.28,2.67-2.42,1-1.8,2.74,1.28,2.12a1.58,1.58,0,0,0-.16,1.84c1.14.6,2,.18,2.87-.81.08.14.16.26.24.38,0,4.46-.76,9.06-1.11,13.63a3,3,0,0,0-1.45-.08c-.88-1.09-1.67-2.24-2.46-3.27a39.1,39.1,0,0,1-2.49-3.64c.73,0,1.15-.59.54-1.59a2.86,2.86,0,0,0,1.94-.12c.5-.68,0-1.09-1.16-1.48,2.78-1.13.68-2.6-1-2a1,1,0,1,0-2.06-.11c-.79-1.48-2.85-.94-2.44.28-2.08-.79-2.79.93-1.33,1.72-1.67.7-1.38,2.3,1.06,2.26.2,1.12,1.7,1.33,2.66.63a40.46,40.46,0,0,0,2.52,3.91c1,1.32,2,2.81,3.11,4.17a1.67,1.67,0,0,0,0,1.57c-2,.63-1.68,2.32.32,2.81-1.62,1.66-.11,3,2.36,1.57a1.77,1.77,0,0,0,.9,1.73,1.7,1.7,0,0,0,1.55-.35c-.1,6.81,0,13.64.13,20.46a78.79,78.79,0,0,0-5.7-10.8,1.24,1.24,0,0,0,.79-2.07c2.51-.39,2.65-2-.27-2.11a1.64,1.64,0,0,0,.86-1.57c-.74-.75-1.61-.55-2.81.12-.16-2.77-3.47-1.93-3.53-.32-2.24-1.14-3.7.71-1.26,1.55-2.62-.19-2.93,1.7-.91,2-2.27,1.2-.11,2.68,1.83,2,.14,1.59,2.38,2.2,3.69.64a65.12,65.12,0,0,1,7.32,15.23s0,0,0,.05v0q0,7,.17,14a93.24,93.24,0,0,0-8.87-19.47A42.53,42.53,0,0,0,62,150.63c-.5-.37-1-.74-1.53-1.1a48.46,48.46,0,0,0-1.66-4.78,2.57,2.57,0,0,0,2.18.05,1.7,1.7,0,0,0,2.91-.48c1.9.71,3.16-.27,1.36-1.46a2.47,2.47,0,0,0,1.71-.68c.07-.77-.64-1-1.9-1,1.92-1.85-.83-2.57-2-1.56-.61-1.6-2.9-1-1.95.51-1.56-1.13-3.13,0-2.08,1a1.86,1.86,0,0,0-1.49.42,38.23,38.23,0,0,1-2.24-7.27c.84-.19,1-.78.9-1.71,3.3,1.4,4.11-1.06,2.29-2,2.54-.73,1.2-2.63-1.1-1.61,1.64-1.49-.37-2.7-1.86-1.66-.14-2-3-1.52-3.26,0-2-.83-4.11.36-2.59,2.17-1.61.9-.74,2.34,1.19,2.44-.91,1.74.88,2.7,2.59,1a2.45,2.45,0,0,0,.32.65c.71,5,3.3,9.82,4.88,14.7a83.12,83.12,0,0,1-8.29-5.91,1.48,1.48,0,0,0,.14-.61c3.15-.25,3.15-2.34.84-3,1.69-1.19.38-3.33-2.13-2,.25-1.62-2.53-2.07-3.19-.06-.33-2.1-3.45-1.67-2.64.4-2.28-.53-4.65,1.63-.8,2.73-1.37.65-2,1.23-1.15,2.05a3.76,3.76,0,0,0,2.52-.08c-.88,2.2,1.43,2.67,2.89.95a2.79,2.79,0,0,0,2.58.49A100.46,100.46,0,0,0,58,149.19a44.84,44.84,0,0,1,12.5,13.29,81.22,81.22,0,0,1,8.28,17.71c-.83-1.26-1.67-2.51-2.62-3.73-2.64-3.39-5.49-6.72-8.52-10a143,143,0,0,0-15.64-14c1-.47,1.17-1.55.09-2.42,2.24-.55,2.32-2.88-.69-2.52,1.18-1.38-1.06-2.65-2.86-1,.95-2-2.12-2.58-2.61-.46-1.76-1.19-5.17,0-2.35,2.22-1.62.15-2.49.49-2.26,1.49a3.44,3.44,0,0,0,2.34.71c-2.11,1.71-.3,2.85,2,1.75a2.23,2.23,0,0,0,3.83.34,5.37,5.37,0,0,0,1.05.16,152.22,152.22,0,0,1,16,14.26c1.66,1.75,3.23,3.54,4.76,5.35l-7.2-3c-.41-.17-.79-.36-1.19-.54a.66.66,0,0,0-.32-.25c-.32-.12-.66-.22-1-.34-6.56-3.2-12.45-8-17.35-12.24A85.52,85.52,0,0,1,29.5,139.25a.7.7,0,0,0,.51-.33c2.49-5.11,3.63-10.56,4.93-15.89,1.18,1.2,3.2.64,3.42-.75,2.35.73,3.76-.51,1.47-1.83a2.8,2.8,0,0,0,2-.91c0-.93-.87-1.14-2.38-1.1,2.1-2.32-1.27-3-2.61-1.74-.91-1.87-3.58-1-2.27.72-2-1.26-3.75.15-2.37,1.28-2.82,0-2.23,2.12-.08,2.36-1,1.1-.23,2.28,1.33,2.28-1.21,5-2.34,10.08-4.61,14.87a123.4,123.4,0,0,1-7.57-13.35c1.38.86,3.65.34,2.72-1.47,2.1.57,3.38-1.26.86-2.23,2.9.29,3.1-2,.12-2,1.27-1.48-1-3.67-3.45-1.24-.53-1.12-1.15-1.68-2.46-1.32a1.61,1.61,0,0,0-.5,1.79c-2.73-1.17-3.92.35-2,1.8-1.86.71-1.86,2.4.28,2.79-.35,1.81,1.33,2.49,2.79,2A114.39,114.39,0,0,0,31.3,144.15a87.2,87.2,0,0,1-14.47-9.76c.62-.6.68-1.55-.31-2.67,2.17-1.27.94-3.22-1.71-3.32,1.17-2.4-1.3-3.68-3.58-1.29a2.77,2.77,0,0,0-1.9-1.87c-1.75.08-2.07,1-1.85,2.46-4.57-1.86-5.59,1.53-3.06,2.74C1,131.51,2.87,134.08,6,132.63c-2.19,2.08.62,3.7,2.62,2.24.27,2.78,4.2,2,4.46-.13a4.52,4.52,0,0,0,2.6.24c5,4.4,11.14,8,17.47,11.49,1.79,2.19,3.71,4.34,5.77,6.42a52.89,52.89,0,0,0-7.69-1.55c1.37-.8,0-2-1.53-1.72.78-1.55-1.58-2-2-.4-.36-1.57-2.52-1.35-2.46-.09-1.83-1.08-3,.5-1.79,1.49-1.84.44-2,2,.41,2.37-.13,1.22,1.57,1.65,2.74.83,1,1.38,2.8,1.12,2.3-.61a2.82,2.82,0,0,0,1.92.17c.42-.37.42-.69.13-1a50.1,50.1,0,0,1,8.74,1.85.81.81,0,0,0,.54,0c.66.65,1.35,1.29,2,1.93a91,91,0,0,0,14.14,10.42c-3.42-1-6.93-1.85-10.5-2.55,1.26-.81.77-2.17-1.5-2-.31-1.22-2.1-1.3-2.95-.31-1.43-1.15-3.09-.57-2,1a2.81,2.81,0,0,0-1.93.19c-.45.71.11,1.08,1.27,1.43-2.7,1.23-.5,2.62,1.14,2a1.05,1.05,0,1,0,2.07,0c.9,1.46,2.91.84,2.41-.36,1.27.42,2,0,2-.62a95.91,95.91,0,0,1,15.28,4.29l.09,0c3.3,1.71,7,3.05,10.5,4.5a.91.91,0,0,0,.48.06c.56.69,1.12,1.37,1.67,2.06,2.11,2.63,3.75,5.4,5.67,8.1.22.64.44,1.28.65,1.93a.18.18,0,0,0,0,.07c.12,3.19.27,6.38.49,9.56,0,.75,1.66.79,1.6,0-.62-9.09-.79-18.2-.82-27.31,0-2.4,0-4.8,0-7.21.78-5.2,5.48-9.49,7.06-14.52,1,1.11,3.06.89,3-.84,1.68-.15,1.91-1.44.59-2.12,1.67-1,1-2.2-1.28-1.5m-32.84.59a1.43,1.43,0,0,0-.37.61c-.12-.28-.23-.57-.35-.86a2.44,2.44,0,0,0,.72.25" transform="translate(61.86 69.14)"/>
      <g>
        <path class="cls-6" d="M27.07,426.09c-3.06,1.85-21.44,8.15-16.84,12.59,4.07,4.06,17.86-5.19,19.9-7.77,0,3.69-1.54,16.34,5.09,17.82,6.13,1.11,3.59-13,3.59-16.3,4.08,2.22,20.75,9.58,23.82,2.91,2-4.44-15-8.14-19.05-8.51,5.61-4.81,21.87-11.92,16.16-15.91-4.52-2.67-16.85,6.66-20.42,11.1.51-2.59,5.61-20.35-5.11-17-5.61,1.48-2.55,14.06-3.57,17.39-2-3.33-13.27-14.06-17.87-8.51-3.56,4.81,9.71,11.47,14.3,12.21" transform="translate(61.86 69.14)"/>
        <path class="cls-6" d="M35.75,412a19.92,19.92,0,0,1,.54,6.5c-.08,1.08-.17,2.15-.35,3.23a22.1,22.1,0,0,1-.7,3.22,19.85,19.85,0,0,1-.53-6.49c.08-1.08.17-2.16.35-3.24a22.34,22.34,0,0,1,.69-3.22" transform="translate(61.86 69.14)"/>
        <path class="cls-6" d="M18.39,418.32c2.94,1.24,5.7,2.56,8.49,3.87l8.36,4A25.86,25.86,0,0,1,30.43,425,42,42,0,0,1,26,423.14a42.48,42.48,0,0,1-4.06-2.2,22.2,22.2,0,0,1-3.57-2.62" transform="translate(61.86 69.14)"/>
        <path class="cls-6" d="M16.75,434.2a21.8,21.8,0,0,1,4.34-2.63c1.57-.77,3.22-1.42,4.87-2.06,3.33-1.23,6.72-2.3,10.19-3.35a31.42,31.42,0,0,1-4.57,2.4c-1.6.71-3.25,1.34-4.9,2-3.31,1.23-6.62,2.36-9.93,3.67" transform="translate(61.86 69.14)"/>
        <path class="cls-6" d="M35.24,428.09a9.07,9.07,0,0,1,1,3.56,21.79,21.79,0,0,1,.12,3.61,33.24,33.24,0,0,1-1.17,7.15,15.91,15.91,0,0,1-.45-3.6c0-1.21,0-2.4,0-3.59l.24-3.56c.07-1.19.18-2.36.17-3.57" transform="translate(61.86 69.14)"/>
        <path class="cls-6" d="M36.16,426.16a48.27,48.27,0,0,1,8.85,3c2.79,1.23,5.41,2.55,8.09,3.93a26.37,26.37,0,0,1-4.62-1.25c-1.48-.51-2.89-1.1-4.28-1.71a87.2,87.2,0,0,1-8-4" transform="translate(61.86 69.14)"/>
        <path class="cls-6" d="M36.16,426.16c3.46-2.17,6.61-4.47,9.88-6.77a59.44,59.44,0,0,1,10.63-6.25c-3.19,2.38-6.25,4.77-9.54,7.08a45.34,45.34,0,0,1-11,5.94" transform="translate(61.86 69.14)"/>
        <path class="cls-6" d="M39.32,428.31c2.43-2.64-2.88-6.07-6.43-4.54-5.24,2.27,2,9.39,6.43,4.54" transform="translate(61.86 69.14)"/>
      </g>
      <g>
        <path class="cls-5" d="M142.55,689.2c-2.54-3.24-7.36-5.73-11.38-7.21-2.33-1-15-5-17.6-3.49-4.35,2.41,8.12,7.2,10.31,7.9,5.59,1.77,12.82,2.41,18.67,2.8" transform="translate(61.86 69.14)"/>
        <path class="cls-5" d="M169.28,711.27c-5-2.32-7.9-7.13-10.06-11-2.84-5-4.46-10.5-6.84-15.68-4.63-10.13-6.53-20.26-8.69-30.76-.17-.78-1.82-.55-1.66.22,1.14,5.56,2,11.14,3.4,16.67s3.83,10.85,6.27,16.21c2.25,4.95,3.85,10,6.56,14.86,2.07,3.68,5.31,8.24,10.09,10.46.9.42,1.84-.59.93-1" transform="translate(61.86 69.14)"/>
        <path class="cls-5" d="M146.87,670.37c-.08-2.75,2.91-22.59-4.55-22.23-4.84.35-3.89,8.85-3,10.8,1,4.1,4.63,8.19,7.13,11.71Z" transform="translate(61.86 69.14)"/>
        <path class="cls-5" d="M147.37,665.53c3.81-4.66,15.89-13.69,15-21.75-.64-5.66-6.14-2.79-8.76.58-2.37,3.45-5.07,8.26-6,12.17" transform="translate(61.86 69.14)"/>
        <path class="cls-5" d="M155.93,646.63c-2.75,4.52-5.9,8.91-8.87,13.35-.48.71,1.12,1.09,1.59.39,3-4.44,6.12-8.82,8.87-13.34.44-.72-1.15-1.11-1.59-.4" transform="translate(61.86 69.14)"/>
        <path class="cls-5" d="M151.53,682.3c.85-7.15,7.8-12.63,11.54-19,.43-.73-1.17-1.12-1.59-.4-3.82,6.53-10.76,12-11.62,19.33-.09.79,1.59.87,1.67.09" transform="translate(61.86 69.14)"/>
        <path class="cls-5" d="M153.71,674.67c3.93-3.16,10-6.73,12.81-10.46,1.87-2.13,6-9-1.22-7.1-7.1,2.16-9.77,13.1-11.59,17.56" transform="translate(61.86 69.14)"/>
        <path class="cls-5" d="M156.91,695.51c-3.71-2.75-8.83-4.74-13.4-6.62-7.23-3-14.75-5.93-22.71-7.71-1-.23-1.58.92-.54,1.16,7.86,1.75,15.13,4.7,22.32,7.56,4.43,1.78,9.5,3.77,13.06,6.42.76.56,2-.25,1.27-.81" transform="translate(61.86 69.14)"/>
        <path class="cls-5" d="M163.73,696.61a15.92,15.92,0,0,0-3.75,7.7c-.14.78,1.53.86,1.68.08a15,15,0,0,1,3.47-7.1c.61-.66-.79-1.33-1.4-.68" transform="translate(61.86 69.14)"/>
        <path class="cls-5" d="M114.39,646.42c.73-3.13,5.73-31.57-3.31-30-5.06.71-4.91,9.34-4.59,12.18.42,2.65,1.82,5.85,2.84,8.48a71.58,71.58,0,0,0,5.06,9.37" transform="translate(61.86 69.14)"/>
        <path class="cls-5" d="M110.51,623.57c-1.55,6.16.12,12,1.58,18.12,1.52,6.3,4.5,11.28,11,15.79.78.54,2.05-.26,1.26-.81a31.5,31.5,0,0,1-7.49-7.12c-2.09-2.83-2.56-5.84-3.3-8.94-1.37-5.68-2.81-11.18-1.35-17,.2-.78-1.48-.85-1.68-.09" transform="translate(61.86 69.14)"/>
        <path class="cls-5" d="M138,664.74c-6.05-2.66-11.05-6.39-16.34-9.76A83.21,83.21,0,0,0,110,649c-8.26-3.56-17.64-7.63-27.08-9.25-1-.18-1.6,1-.55,1.15,9.7,1.67,19.11,5.84,27.59,9.5,10,4.3,17.25,11,27.1,15.31.93.4,1.87-.61.93-1" transform="translate(61.86 69.14)"/>
        <path class="cls-5" d="M111.67,650.48c-7.07-4.13-14.58-10-23-12.41-4.13-1.31-18.16-3-12.85,3.07,2.72,3.17,9.57,4.29,14,5.5,8.14,2.37,17.44,3,25.47,5.57" transform="translate(61.86 69.14)"/>
        <path class="cls-5" d="M152.85,686.57c-5.46-2-9-5.71-14.09-8.06a163.07,163.07,0,0,0-19-7.36c-13.38-4.24-28.28-5-41.81-9-1-.3-1.55.86-.55,1.15,12.67,3.73,26.38,4.85,39.18,8.27a141.26,141.26,0,0,1,21.3,8c5.11,2.3,8.61,6.09,14.09,8.05,1,.34,1.9-.67.93-1" transform="translate(61.86 69.14)"/>
        <path class="cls-5" d="M113.58,670.14c-7.62-2.58-17.57-6.68-25-8.82-2.68-.85-13.46-1.72-16.11,1.22-4.72,5.43,36,7,38.86,7.06" transform="translate(61.86 69.14)"/>
        <path class="cls-5" d="M137.53,678c-7.25-3.35-10.18-9.64-16.61-13.63-5.5-3.41-13-5.85-19.79-7.59-1-.26-1.57.89-.55,1.16,7.41,1.89,15.9,4.57,21.24,8.83,5.05,4,8.31,9.26,14.78,12.24.91.43,1.85-.59.93-1" transform="translate(61.86 69.14)"/>
        <path class="cls-5" d="M126.19,669.74c-3.43-4.87-9.73-10.9-16.57-13.49-2.92-.92-18.45-5.43-15.59,1.35,1.4,3,10.92,4.94,14.57,6.1,4.73,1.29,11.66,1.8,15.39,4.25" transform="translate(61.86 69.14)"/>
        <path class="cls-5" d="M147.65,684c-3.18-4.7-5.06-9.75-7.23-14.71-2-4.61-4.42-9.08-6.14-13.76C131.14,647,128.22,637.89,129,629c.07-.78-1.6-.87-1.67-.08-.73,8.71,2.1,17.37,5,25.77,1.73,5.07,4.27,9.88,6.5,14.82s4.13,10.22,7.38,15c.48.71,2,.17,1.51-.53" transform="translate(61.86 69.14)"/>
        <path class="cls-5" d="M130,644.64c-.53-2.48,3.7-26.76-3.48-24-3,1.15-3.55,10.22-3,12.69.79,4.46,5.2,9.8,7,14" transform="translate(61.86 69.14)"/>
        <path class="cls-5" d="M133.24,652.61c.27-5.19,3-9.62,4.6-14.62a51.38,51.38,0,0,0,2.22-16c0-.78-1.69-.87-1.68-.09A53.39,53.39,0,0,1,136,638.57c-1.52,4.83-4.13,8.92-4.39,14,0,.78,1.64.87,1.68.08" transform="translate(61.86 69.14)"/>
        <path class="cls-5" d="M136.37,639.86c1.11-2.8,12.88-31.52,2.82-29.25-4.43,1.11-3.72,9.53-3.54,12.1,0,5.69,1.11,12.68.21,18.49" transform="translate(61.86 69.14)"/>
        <path class="cls-5" d="M106.43,627.93c-1.24-3.39-6.67-12-8.56-15.1-1.72-2.44-8.75-16.22-14-15.16-11.46,2.66,19.62,27,21.8,29.17" transform="translate(61.86 69.14)"/>
        <path class="cls-5" d="M86.07,603.08c4.66,8.22,11.87,15.73,18.07,23.36.55.68,2.06.15,1.51-.53-6.2-7.63-13.41-15.15-18.07-23.36-.41-.73-1.92-.19-1.51.53" transform="translate(61.86 69.14)"/>
        <path class="cls-5" d="M108.73,636c-5.46-1.87-10.27-4.7-15.62-6.77-4.84-1.87-9.86-3.5-14.81-5.19-1-.34-1.52.82-.55,1.15,5.73,2,11.49,3.87,17,6.08,4.59,1.83,8.66,4.26,13.39,5.89,1,.33,1.51-.83.54-1.16" transform="translate(61.86 69.14)"/>
        <path class="cls-5" d="M103.69,634.59c-4.46-3.15-8.58-7.1-15.42-9.68-2.57-1-13.36-5.72-16.14-3-5.6,4.94,28.89,11.86,31.56,12.7" transform="translate(61.86 69.14)"/>
        <path class="cls-5" d="M97.66,619.9c-7.3-2.31-14.51-5.23-20-9.5-3.63-2.63-13.84-9.23-11.67-13.79,4.38-.9,6.49,2.69,8.91,4.92,3.55,3.23,13.14,11,17.8,13.87" transform="translate(61.86 69.14)"/>
        <path class="cls-5" d="M94.66,617.45c-8.64-3.59-15.25-9.4-21.46-14.94-.69-.61-1.94.2-1.26.81,6.29,5.61,13,11.5,21.79,15.15.94.39,1.87-.62.93-1" transform="translate(61.86 69.14)"/>
      </g>
      <g>
        <path class="cls-5" d="M198.26,707.67c2-2.59,5.89-4.58,9.1-5.77,1.87-.76,12-4,14.09-2.79,3.48,1.93-6.49,5.76-8.25,6.32-4.47,1.42-10.26,1.94-14.94,2.24" transform="translate(61.86 69.14)"/>
        <path class="cls-5" d="M176.86,725.34c4-1.85,6.33-5.7,8-8.77,2.28-4,3.58-8.41,5.47-12.55,3.72-8.11,5.24-16.22,7-24.62.14-.63,1.46-.44,1.33.18-.91,4.44-1.62,8.91-2.72,13.34a76,76,0,0,1-5,13c-1.8,4-3.08,8-5.25,11.89-1.66,3-4.25,6.6-8.07,8.37-.73.34-1.48-.47-.75-.81" transform="translate(61.86 69.14)"/>
        <path class="cls-5" d="M194.8,692.61c.06-2.21-2.33-18.09,3.64-17.8,3.87.28,3.11,7.09,2.43,8.64-.8,3.29-3.7,6.56-5.71,9.38Z" transform="translate(61.86 69.14)"/>
        <path class="cls-5" d="M194.4,688.72c-3.05-3.72-12.72-11-12-17.4.51-4.53,4.91-2.23,7,.47a32.59,32.59,0,0,1,4.79,9.74" transform="translate(61.86 69.14)"/>
        <path class="cls-5" d="M187.54,673.61c2.21,3.61,4.73,7.12,7.11,10.68.38.56-.9.87-1.28.31-2.38-3.56-4.9-7.06-7.1-10.68-.35-.58.92-.89,1.27-.31" transform="translate(61.86 69.14)"/>
        <path class="cls-5" d="M191.06,702.15c-.68-5.72-6.24-10.1-9.23-15.23-.34-.57.94-.88,1.27-.31,3.06,5.22,8.61,9.62,9.3,15.47.08.63-1.26.7-1.34.07" transform="translate(61.86 69.14)"/>
        <path class="cls-5" d="M189.33,696.05c-3.15-2.53-8-5.39-10.26-8.37-1.49-1.71-4.81-7.22,1-5.69,5.68,1.73,7.82,10.49,9.28,14.06" transform="translate(61.86 69.14)"/>
        <path class="cls-5" d="M186.77,712.72c3-2.2,7.06-3.79,10.72-5.29a111.91,111.91,0,0,1,18.17-6.17c.83-.19,1.27.74.44.92a117,117,0,0,0-17.87,6.06c-3.55,1.42-7.6,3-10.46,5.13-.6.45-1.62-.19-1-.65" transform="translate(61.86 69.14)"/>
        <path class="cls-5" d="M181.3,713.61a12.65,12.65,0,0,1,3,6.16c.12.62-1.22.69-1.34.07a11.89,11.89,0,0,0-2.78-5.7c-.49-.52.64-1.06,1.12-.53" transform="translate(61.86 69.14)"/>
        <path class="cls-5" d="M220.8,673.43c-.59-2.5-4.59-25.27,2.65-24,4.05.57,3.93,7.48,3.67,9.76a37.3,37.3,0,0,1-2.28,6.78,56,56,0,0,1-4,7.5" transform="translate(61.86 69.14)"/>
        <path class="cls-5" d="M223.9,655.15c1.25,4.93-.1,9.64-1.26,14.5a20.09,20.09,0,0,1-8.79,12.63c-.63.44-1.64-.2-1-.64a25.57,25.57,0,0,0,6-5.7c1.67-2.26,2-4.68,2.64-7.16,1.09-4.54,2.24-8.95,1.08-13.56-.16-.62,1.18-.69,1.34-.07" transform="translate(61.86 69.14)"/>
        <path class="cls-5" d="M201.9,688.09c4.85-2.12,8.85-5.11,13.08-7.8a65.34,65.34,0,0,1,9.33-4.76c6.61-2.85,14.12-6.1,21.68-7.41.84-.14,1.28.78.44.93-7.77,1.33-15.31,4.67-22.09,7.6-8,3.44-13.8,8.8-21.69,12.26-.74.32-1.49-.49-.75-.82" transform="translate(61.86 69.14)"/>
        <path class="cls-5" d="M223,676.68c5.65-3.3,11.66-8,18.36-9.93,3.31-1,14.54-2.42,10.29,2.45-2.17,2.54-7.67,3.44-11.25,4.41-6.51,1.9-14,2.42-20.38,4.46" transform="translate(61.86 69.14)"/>
        <path class="cls-5" d="M190,705.57c4.37-1.57,7.23-4.57,11.28-6.45a130.39,130.39,0,0,1,15.24-5.89c10.71-3.4,22.64-4,33.47-7.23.81-.24,1.24.69.44.92-10.14,3-21.11,3.88-31.35,6.62A112.85,112.85,0,0,0,202,699.93c-4.1,1.85-6.9,4.88-11.28,6.45-.77.28-1.53-.53-.75-.81" transform="translate(61.86 69.14)"/>
        <path class="cls-5" d="M221.45,692.42c6.1-2.06,14.05-5.35,20-7.06,2.14-.68,10.77-1.38,12.89,1,3.78,4.36-28.81,5.6-31.1,5.66" transform="translate(61.86 69.14)"/>
        <path class="cls-5" d="M202.27,698.68c5.81-2.68,8.15-7.72,13.29-10.91,4.41-2.73,10.41-4.69,15.85-6.08.82-.2,1.25.72.43.93-5.92,1.51-12.72,3.66-17,7.07-4,3.22-6.65,7.41-11.83,9.8-.73.34-1.48-.47-.75-.81" transform="translate(61.86 69.14)"/>
        <path class="cls-5" d="M211.35,692.1c2.75-3.9,7.79-8.73,13.27-10.8,2.33-.74,14.76-4.34,12.47,1.09-1.12,2.37-8.74,4-11.66,4.87-3.79,1-9.33,1.45-12.32,3.41" transform="translate(61.86 69.14)"/>
        <path class="cls-5" d="M194.17,703.49c2.55-3.75,4.05-7.79,5.79-11.77,1.62-3.69,3.53-7.27,4.91-11,2.52-6.85,4.85-14.11,4.26-21.23,0-.63,1.29-.7,1.34-.07.58,7-1.68,13.91-4,20.63-1.38,4.05-3.41,7.9-5.2,11.86s-3.31,8.18-5.91,12c-.38.56-1.59.13-1.21-.44" transform="translate(61.86 69.14)"/>
        <path class="cls-5" d="M208.34,672c.43-2-3-21.42,2.79-19.21,2.4.92,2.84,8.18,2.42,10.16-.64,3.56-4.17,7.84-5.64,11.17" transform="translate(61.86 69.14)"/>
        <path class="cls-5" d="M205.71,678.39c-.22-4.16-2.43-7.7-3.69-11.71a41,41,0,0,1-1.77-12.83c0-.63,1.35-.7,1.34-.07a42.79,42.79,0,0,0,1.95,13.37c1.21,3.87,3.3,7.14,3.51,11.17,0,.63-1.31.7-1.34.07" transform="translate(61.86 69.14)"/>
        <path class="cls-5" d="M203.2,668.18c-.89-2.24-10.31-25.23-2.26-23.41,3.55.89,3,7.63,2.84,9.69,0,4.55-.89,10.15-.17,14.79" transform="translate(61.86 69.14)"/>
        <path class="cls-5" d="M227.17,658.64c1-2.72,5.33-9.6,6.85-12.09,1.37-1.95,7-13,11.22-12.14,9.18,2.14-15.7,21.63-17.44,23.35" transform="translate(61.86 69.14)"/>
        <path class="cls-5" d="M243.46,638.75c-3.73,6.57-9.5,12.58-14.46,18.69-.44.54-1.65.12-1.21-.42,5-6.11,10.74-12.13,14.46-18.7.33-.59,1.54-.15,1.21.43" transform="translate(61.86 69.14)"/>
        <path class="cls-5" d="M225.32,665.08c4.37-1.5,8.22-3.77,12.5-5.42,3.88-1.5,7.89-2.8,11.86-4.16.79-.26,1.22.66.44.93-4.59,1.57-9.2,3.09-13.65,4.86-3.67,1.46-6.93,3.41-10.71,4.71-.79.27-1.21-.65-.44-.92" transform="translate(61.86 69.14)"/>
        <path class="cls-5" d="M229.36,664c3.57-2.52,6.87-5.69,12.34-7.76,2.06-.82,10.7-4.57,12.92-2.41,4.48,4-23.12,9.49-25.26,10.17" transform="translate(61.86 69.14)"/>
        <path class="cls-5" d="M234.19,652.21c5.84-1.85,11.61-4.19,16-7.61,2.91-2.1,11.08-7.38,9.35-11-3.51-.73-5.2,2.15-7.14,3.94A137.29,137.29,0,0,1,238.2,648.6" transform="translate(61.86 69.14)"/>
        <path class="cls-5" d="M236.59,650.25c6.92-2.88,12.21-7.53,17.17-12,.55-.49,1.56.16,1,.64-5,4.49-10.42,9.21-17.44,12.13-.75.31-1.5-.5-.74-.81" transform="translate(61.86 69.14)"/>
      </g>
      <g>
        <path class="cls-6" d="M28.55,488.67c17.28,44.16.64,90,8.84,134.75,3.76,20.5,14.75,39.67,35.54,54.18,23.42,16.36,56,29.55,88.37,32.8,36.3,3.65,71.85-3.28,106.05-11.52,18.38-4.43,36.62-9.23,55.23-13.14,18.29-3.84,38.27-8,57.46-7.94,27.49,0,54.61,14.54,72.39,28.58,9.45,7.47,18.9,17,23.6,27.21H-4.65V449.73C11.44,459.91,22.56,473.38,28.55,488.67Z" transform="translate(61.86 69.14)"/>
        <path class="cls-7" d="M-10,472.64A78.08,78.08,0,0,1,12,503.36c17.28,44.15.64,90,8.85,134.75,3.75,20.49,14.75,39.67,35.53,54.17,23.43,16.36,56,29.55,88.38,32.81,36.3,3.64,71.84-3.28,106-11.52,18.37-4.43,36.61-9.23,55.22-13.14,18.3-3.85,38.27-8,57.47-7.94,27.49,0,54.61,14.53,72.39,28.57a104.9,104.9,0,0,1,16.15,15.6" transform="translate(61.86 69.14)"/>
      </g>
      <g class="cls-8">
        <path class="cls-9" d="M437.63,632.94c-7.86,2.94-9.75,5.8-11.57,12.14a32.64,32.64,0,0,0,19.57-5.65c2.67,5.88,4.3,8.57,12.74,11.49,2.29-5,2.6-9.94-1.91-15.38,4.84.82,14.28-2.43,19.12-6-6.8-3.18-14.22-5.31-21.73-3.34,1.87-6.73-3.22-12.57-4-12.69-.45-.07-8.05,3-7.31,12.23a73,73,0,0,0-19.83-2.27c3.42,6.88,9.81,8.38,15,9.46" transform="translate(61.86 69.14)"/>
        <path class="cls-9" d="M443.74,629.88c-1.54,1.43.56,3.49,3.17,3.07,4-.65.67-5.13-2.45-3.55a2.73,2.73,0,0,0-.72.48" transform="translate(61.86 69.14)"/>
        <path class="cls-9" d="M426.76,625.18s1,.09,2.47.34a52.73,52.73,0,0,1,5.19,1.24,46.73,46.73,0,0,1,4.88,1.79c1.29.57,2.11,1,2.11,1s-1-.1-2.45-.38-3.32-.75-5.15-1.31a49.17,49.17,0,0,1-4.93-1.72c-1.29-.55-2.12-1-2.12-1" transform="translate(61.86 69.14)"/>
        <path class="cls-9" d="M435.24,624.7s.69,0,1.65.15a13.21,13.21,0,0,1,3.32,1,12.72,12.72,0,0,1,2.67,1.71,9,9,0,0,1,.95,1,15.89,15.89,0,0,1-1.55-.43,28.14,28.14,0,0,1-3-1.24c-.51-.23-1-.45-1.48-.7s-.93-.47-1.32-.69a11,11,0,0,1-1.26-.78" transform="translate(61.86 69.14)"/>
        <path class="cls-9" d="M446.5,627.76a6.27,6.27,0,0,1-.68-.94,4.34,4.34,0,0,1-.53-2.27,5.51,5.51,0,0,1,.66-2.23,6,6,0,0,1,.69-.94,5.17,5.17,0,0,1,.26,1,10.18,10.18,0,0,1,.06,2.17,6.7,6.7,0,0,1-.07,1.1,8.06,8.06,0,0,0-.13,1,5.17,5.17,0,0,1-.26,1" transform="translate(61.86 69.14)"/>
        <path class="cls-9" d="M448.42,626.87a2.93,2.93,0,0,1-.4-.66,2.73,2.73,0,0,1-.18-1.39,3.76,3.76,0,0,1,.83-1.37,3.29,3.29,0,0,1,.67-.52,2.86,2.86,0,0,1,.26.69,2.35,2.35,0,0,1-.09,1.3,3.13,3.13,0,0,1-.54,1.35,3.59,3.59,0,0,1-.55.6" transform="translate(61.86 69.14)"/>
        <path class="cls-9" d="M454.11,631.3a17.26,17.26,0,0,1,1.66-.75,8.5,8.5,0,0,1,1.83-.55c.71-.16,1.49-.28,2.26-.4a21.47,21.47,0,0,1,4.28,0,18.72,18.72,0,0,1,1.9.35s-.77.19-1.89.35-2.58.38-4,.46c-.72.09-1.42.18-2.11.23s-1.35.12-1.92.18c-1.16.1-2,.09-2,.09" transform="translate(61.86 69.14)"/>
        <path class="cls-9" d="M450.9,629.06a6.75,6.75,0,0,1,.92-.71,11.85,11.85,0,0,1,2.31-1.13,14.62,14.62,0,0,1,2.87-.39,9.16,9.16,0,0,1,1.34.07,9.93,9.93,0,0,1-1.06.6,11.79,11.79,0,0,1-2.4.81,13.57,13.57,0,0,1-2.64.66,10.16,10.16,0,0,1-1.34.09" transform="translate(61.86 69.14)"/>
        <path class="cls-9" d="M447.85,635.38a9.25,9.25,0,0,1,.69,1.24,4.85,4.85,0,0,1,.25.61c.07.22.23.42.32.64.22.43.41.91.59,1.37s.48.92.65,1.37c.11.22.15.46.27.65s.22.39.31.56a9.71,9.71,0,0,1,.52,1.28,11.46,11.46,0,0,1-1.35-.92,4.23,4.23,0,0,1-1.1-1.13,15.74,15.74,0,0,1-.9-1.43,15,15,0,0,1-.44-1.57,3.32,3.32,0,0,1-.07-1.35,7.84,7.84,0,0,1,.26-1.32" transform="translate(61.86 69.14)"/>
        <path class="cls-9" d="M449.36,635.19a12,12,0,0,1,1.15,1c.31.32.64.7,1,1.07a15.41,15.41,0,0,1,1.07,1.21,12.53,12.53,0,0,1,1.71,2.53,6.83,6.83,0,0,1,.47,1.27,14,14,0,0,1-1.3-.92,19.08,19.08,0,0,1-2.3-2.24,8.41,8.41,0,0,1-1.55-2.64,7.3,7.3,0,0,1-.28-1.3" transform="translate(61.86 69.14)"/>
        <path class="cls-9" d="M433.11,640.76l.56-.17.63-.16a3.24,3.24,0,0,0,.75-.29,8.16,8.16,0,0,1,.79-.34l.85-.47c.61-.29,1.16-.74,1.77-1.1s1.17-.81,1.69-1.22,1-.77,1.48-1.1l1.09-.78c.28-.2.45-.3.45-.3a3.88,3.88,0,0,1-.17.42,6.61,6.61,0,0,1-.58,1.06,8.12,8.12,0,0,1-1.13,1.39,13.48,13.48,0,0,1-1.68,1.42,12.19,12.19,0,0,1-2.12,1.11c-.38.14-.73.27-1.09.38s-.78.15-1.12.2a5.61,5.61,0,0,1-1.58,0c-.37,0-.59-.07-.59-.07" transform="translate(61.86 69.14)"/>
        <path class="cls-9" d="M433.54,638.22a8.92,8.92,0,0,1,1-.88,16,16,0,0,1,2.56-1.51,17.07,17.07,0,0,1,2.8-1.2,13.74,13.74,0,0,1,1.47-.36,7.12,7.12,0,0,1-.9.93,14.72,14.72,0,0,1-2.46,1.66,18.79,18.79,0,0,1-2.95,1.07,12.28,12.28,0,0,1-1.51.29" transform="translate(61.86 69.14)"/>
        <path class="cls-9" d="M447.55,634.63s0,.23,0,.61c0,.2,0,.43,0,.7a3.31,3.31,0,0,0,.15.88l.22,1q.21.54.45,1.11a19.74,19.74,0,0,0,1.16,2.36,23,23,0,0,0,1.6,2.23c.27.34.55.68.81,1s.59.58.86.83a5.22,5.22,0,0,0,.77.68l.66.49.58.44-.71-.32-.82-.38a5.11,5.11,0,0,1-.94-.6l-1.06-.78-1-1a6.46,6.46,0,0,1-.93-1.1l-.85-1.19-.63-1.25a5.27,5.27,0,0,1-.46-1.25,12.2,12.2,0,0,1-.3-1.19c0-.39,0-.77-.05-1.11a3.76,3.76,0,0,1,.26-1.58c.11-.38.18-.6.18-.6" transform="translate(61.86 69.14)"/>
        <path class="cls-9" d="M450.08,633.4s.18.05.47.16a6.64,6.64,0,0,1,1.17.52,8.47,8.47,0,0,1,1.44,1,11,11,0,0,1,1.34,1.3,11.61,11.61,0,0,1,1.67,2.75,8.44,8.44,0,0,1,.47,1.32s-.46-.45-1.05-1.14-1.32-1.6-2-2.51c-.39-.44-.75-.89-1.16-1.28a12,12,0,0,0-1.08-1.07c-.32-.31-.68-.56-.89-.74l-.34-.28" transform="translate(61.86 69.14)"/>
        <path class="cls-9" d="M451.91,632.53h.71c.45,0,1.11,0,1.87,0s1.63,0,2.57-.11,1.95-.15,2.95-.23,2-.21,2.9-.38,1.78-.28,2.51-.44,1.34-.3,1.77-.41l.68-.15-.59.29a10.72,10.72,0,0,1-1.63.69,18,18,0,0,1-2.49.71,26.28,26.28,0,0,1-6.06.63,26.11,26.11,0,0,1-2.67-.15,17.84,17.84,0,0,1-1.83-.28l-.69-.15" transform="translate(61.86 69.14)"/>
        <path class="cls-9" d="M450.2,631.11l.36-.34a4.7,4.7,0,0,1,1.07-.81,10.8,10.8,0,0,1,1.89-.88,16.54,16.54,0,0,1,2.38-.67,24.67,24.67,0,0,1,2.49-.33c.8-.08,1.55-.07,2.19-.08a19.54,19.54,0,0,1,2.13.12s-.84.15-2.07.34c-.62.08-1.33.2-2.09.32s-1.55.27-2.35.41-1.59.32-2.28.54a14.45,14.45,0,0,0-1.9.59,10.88,10.88,0,0,0-1.32.57l-.5.22" transform="translate(61.86 69.14)"/>
        <path class="cls-9" d="M446.57,627.5l-.38-.41a5.36,5.36,0,0,1-.85-1.11,7.47,7.47,0,0,1-.83-1.75,8.85,8.85,0,0,1-.45-2.08c0-.36,0-.72,0-1.08a3.35,3.35,0,0,1,.19-1,5.16,5.16,0,0,1,.79-1.76c.23-.52.79-.83,1-1.08a5.64,5.64,0,0,1,.44-.36s-.1.16-.26.45a4.27,4.27,0,0,0-.6,1.16c-.09.24-.17.51-.27.79s-.07.6-.14.9a10,10,0,0,0-.07,2,15.47,15.47,0,0,0,.28,2c.08.32.13.62.19.92l.26.8a8.51,8.51,0,0,0,.47,1.22c.12.29.18.47.18.47" transform="translate(61.86 69.14)"/>
        <path class="cls-9" d="M449.47,618s.12.11.3.31a5.17,5.17,0,0,1,.7.88,6.65,6.65,0,0,1,.67,1.39,6.46,6.46,0,0,1,.35,1.65,6.19,6.19,0,0,1-.19,1.68,4.53,4.53,0,0,1-.58,1.4,4,4,0,0,1-.7.9l-.31.32a3.61,3.61,0,0,1,.11-.39,5.53,5.53,0,0,0,.3-1,6.06,6.06,0,0,0,.21-1.36,11.44,11.44,0,0,0,0-1.56,12.87,12.87,0,0,0-.19-1.55,10.12,10.12,0,0,0-.3-1.35,8.32,8.32,0,0,0-.31-1,2.43,2.43,0,0,1-.1-.38" transform="translate(61.86 69.14)"/>
        <path class="cls-9" d="M429.36,628.42s.85.19,2.05.56l1,.31c.35.11.74.15,1.11.25.76.16,1.55.37,2.34.57s1.66.29,2.42.46,1.5.3,2.14.38c1.26.2,2.11.4,2.11.4s-.87.06-2.19,0a14.17,14.17,0,0,1-2.26-.14c-.81-.1-1.67-.24-2.54-.38s-1.68-.46-2.45-.7a10.46,10.46,0,0,1-1.95-.8c-1.07-.54-1.75-1-1.75-1" transform="translate(61.86 69.14)"/>
        <path class="cls-9" d="M433.94,624.83a11.5,11.5,0,0,1,1.32.1,12.7,12.7,0,0,1,2.77.69c.45.21.9.43,1.3.65a4.34,4.34,0,0,1,1,.7,6.64,6.64,0,0,1,.79.79s-.53-.16-1.19-.44-1.58-.59-2.4-1-1.72-.72-2.45-1a9,9,0,0,1-1.11-.53" transform="translate(61.86 69.14)"/>
        <path class="cls-9" d="M430.81,640.78s0-.16.08-.43,0-.66.4-1.09a5.32,5.32,0,0,1,1.19-1.41,10.9,10.9,0,0,1,1.86-1.29,22.89,22.89,0,0,1,2.16-1c.71-.28,1.41-.47,2-.65,1.19-.35,2-.5,2-.5s-.69.38-1.74.9c-.53.24-1.14.55-1.78.87s-1.32.66-2,1a18.85,18.85,0,0,0-1.81,1.13c-.25.2-.56.37-.77.56l-.58.55a4.47,4.47,0,0,0-.76,1l-.29.38" transform="translate(61.86 69.14)"/>
        <path class="cls-9" d="M439.72,640.43a2.67,2.67,0,0,1,.27-.27c.17-.18.48-.4.73-.7a9.82,9.82,0,0,0,.84-1c.32-.37.58-.8.87-1.21l1.48-2.36c.42-.66.76-1.09.76-1.09a6.22,6.22,0,0,1-.16,1.22,8.06,8.06,0,0,1-1.07,2.58,7.55,7.55,0,0,1-2.28,2.19,6.07,6.07,0,0,1-1,.49l-.41.15" transform="translate(61.86 69.14)"/>
        <path class="cls-9" d="M454.22,643.54a3.87,3.87,0,0,1,.6.43,4.87,4.87,0,0,1,.9,1.08,3.71,3.71,0,0,1,.46,1.22,2.16,2.16,0,0,1,0,.62,3.87,3.87,0,0,1-.6-.43,4.87,4.87,0,0,1-.9-1.08,3.43,3.43,0,0,1-.45-1.23,1.93,1.93,0,0,1,0-.61" transform="translate(61.86 69.14)"/>
        <path class="cls-9" d="M455.65,642a2.52,2.52,0,0,1,1.21.88,1.37,1.37,0,0,1,.18,1.21,2.48,2.48,0,0,1-1.21-.87,1.39,1.39,0,0,1-.18-1.22" transform="translate(61.86 69.14)"/>
        <path class="cls-9" d="M464.73,627.62a8.83,8.83,0,0,1,1-.17,4.23,4.23,0,0,1,1,0c.39,0,.8.11,1.2.18a6.12,6.12,0,0,1,1.88.86,3.78,3.78,0,0,1,.66.57,9,9,0,0,1-1-.18c-.53-.16-1.27-.25-1.92-.48s-1.3-.38-1.9-.48a6.75,6.75,0,0,1-.94-.28" transform="translate(61.86 69.14)"/>
        <path class="cls-9" d="M446,628.32a3.74,3.74,0,0,1-.55-.59,3.32,3.32,0,0,1-.6-1.48,3.13,3.13,0,0,1,.24-1.54,3,3,0,0,1,.38-.66,3.18,3.18,0,0,1,.24.69,8.93,8.93,0,0,1,.25,1.44,12.45,12.45,0,0,1,.1,1.43,3,3,0,0,1-.06.71" transform="translate(61.86 69.14)"/>
        <path class="cls-9" d="M447.69,628.25a2.19,2.19,0,0,1,.27-.54,1.81,1.81,0,0,0,.29-.48,3.23,3.23,0,0,1,.33-.49A4.39,4.39,0,0,1,450,625.4a1.93,1.93,0,0,1,0,.57,2.94,2.94,0,0,1-.46,1.15,3.65,3.65,0,0,1-.56.55,1.66,1.66,0,0,1-.6.36,4,4,0,0,1-.72.22" transform="translate(61.86 69.14)"/>
        <path class="cls-9" d="M449.64,631.77a5.51,5.51,0,0,1,.85-.25c.53-.09,1.14-.28,1.78-.34a12.66,12.66,0,0,1,1.86-.13,5.55,5.55,0,0,1,.91.07,4.81,4.81,0,0,1-.76.37,7.51,7.51,0,0,1-1.8.49c-.37,0-.73.06-1.07.06a4.11,4.11,0,0,1-.9-.07,5.56,5.56,0,0,1-.87-.2" transform="translate(61.86 69.14)"/>
        <path class="cls-9" d="M447.49,633.49a3.06,3.06,0,0,1,.57.42,4.16,4.16,0,0,1,.84,1,3.5,3.5,0,0,1,.4,1.18,2.29,2.29,0,0,1,0,.59,3.06,3.06,0,0,1-.57-.42,4,4,0,0,1-.84-1,3,3,0,0,1-.39-1.17,1.71,1.71,0,0,1,0-.59" transform="translate(61.86 69.14)"/>
        <path class="cls-9" d="M439.18,636.58a2.46,2.46,0,0,1,.35-.59,5.73,5.73,0,0,1,1.08-1.06,6.6,6.6,0,0,1,1.44-.82,5,5,0,0,1,.8-.27,2.53,2.53,0,0,1-.35.58,5.19,5.19,0,0,1-1.08,1.06,6.84,6.84,0,0,1-1.44.82,5.8,5.8,0,0,1-.8.28" transform="translate(61.86 69.14)"/>
        <path class="cls-9" d="M434.36,628.3a10.64,10.64,0,0,1,1.23,0,18.31,18.31,0,0,1,2.58.35,17.64,17.64,0,0,1,2.47.52,7.91,7.91,0,0,1,1.11.38,11.42,11.42,0,0,1-1.23.06,19,19,0,0,1-2.67-.18,17.87,17.87,0,0,1-2.44-.7,8.58,8.58,0,0,1-1.05-.45" transform="translate(61.86 69.14)"/>
      </g>
      <g class="cls-8">
        <path class="cls-9" d="M79.54,540.47c-2.11,4.8-1,7.14,2.86,11.39,4.75-3.3,6.37-7.14,6.53-11,6,2.19,8.95,3,15.86,1.25-2.54-3.67-6.17-6.55-12.82-7.75,3.3-1.5,6.06-7.09,6-11-6.21,1-11.95,2.77-14.6,6.89-4.11-4.49-11.41-5.68-12-5.42-.31.14-2.16,4.91,5.3,9.72C72.2,536,66.44,539.1,64,541.24c7.15,2.44,11.84.7,15.53-.77" transform="translate(61.86 69.14)"/>
        <path class="cls-9" d="M80.59,536.33c.23,1.4,3,1.7,4.09.42,1.74-2-3.54-3.11-4.06-1a1.24,1.24,0,0,0,0,.57" transform="translate(61.86 69.14)"/>
        <path class="cls-9" d="M67.57,540.54s.64-.36,1.64-.8a37.11,37.11,0,0,1,3.82-1.4,39.78,39.78,0,0,1,4.08-1c1.15-.2,2-.28,2-.28s-.63.35-1.64.78a40.21,40.21,0,0,1-3.86,1.34,41.66,41.66,0,0,1-4,1c-1.14.21-1.94.3-1.94.3" transform="translate(61.86 69.14)"/>
        <path class="cls-9" d="M71.91,536.87a8.47,8.47,0,0,1,1-.58,10.08,10.08,0,0,1,2.6-.78,14.49,14.49,0,0,1,2.79-.13,12.33,12.33,0,0,1,1.28.16,9.61,9.61,0,0,1-1.19.39c-.71.16-1.65.39-2.59.51-.47.08-.92.16-1.37.2s-.88.12-1.25.16c-.76.07-1.3.07-1.3.07" transform="translate(61.86 69.14)"/>
        <path class="cls-9" d="M80.5,534a9.09,9.09,0,0,1-1.1-.25,6.41,6.41,0,0,1-2-1,5.71,5.71,0,0,1-1.33-1.5,4.69,4.69,0,0,1-.35-.79,6.42,6.42,0,0,1,.95.46,15.83,15.83,0,0,1,1.69,1.18,7.73,7.73,0,0,1,.8.64c.23.23.51.43.72.62a6,6,0,0,1,.66.69" transform="translate(61.86 69.14)"/>
        <path class="cls-9" d="M80.88,532.77a4.7,4.7,0,0,1-.72-.2,3.91,3.91,0,0,1-1.17-.7,2.65,2.65,0,0,1-.59-1.1,1.63,1.63,0,0,1,0-.56,5.43,5.43,0,0,1,.68.29,2.94,2.94,0,0,1,.94.75,3.13,3.13,0,0,1,.74,1,2.43,2.43,0,0,1,.15.55" transform="translate(61.86 69.14)"/>
        <path class="cls-9" d="M87.42,532.94a7,7,0,0,1,.34-1.08,3.33,3.33,0,0,1,.6-1c.27-.37.61-.75,1-1.13a11.07,11.07,0,0,1,2.4-1.7,12.2,12.2,0,0,1,1.33-.57,9,9,0,0,1-.79,1c-.53.52-1.14,1.25-1.89,1.89-.33.34-.65.67-1,1s-.65.61-.93.88a10,10,0,0,1-1,.83" transform="translate(61.86 69.14)"/>
        <path class="cls-9" d="M83.93,533a3,3,0,0,1,0-.77,4.88,4.88,0,0,1,.42-1.55,6.82,6.82,0,0,1,1.29-1.37,5.17,5.17,0,0,1,.8-.5,4.5,4.5,0,0,1-.13.76,4.78,4.78,0,0,1-.71,1.41,5.67,5.67,0,0,1-1,1.43,4.7,4.7,0,0,1-.67.59" transform="translate(61.86 69.14)"/>
        <path class="cls-9" d="M87.07,537.72a12.78,12.78,0,0,1,1.33.41c.19.07.39.14.6.24s.45.14.67.22c.46.15.92.34,1.37.53s1,.32,1.42.49c.23.08.43.2.65.26s.41.12.6.18c.74.26,1.26.5,1.26.5a12.7,12.7,0,0,1-1.46,0,6,6,0,0,1-1.46-.19c-.53-.12-1.07-.27-1.6-.43s-1-.45-1.44-.69a5.2,5.2,0,0,1-1.07-.72,10.57,10.57,0,0,1-.87-.84" transform="translate(61.86 69.14)"/>
        <path class="cls-9" d="M87.76,537a13.15,13.15,0,0,1,1.42.1c.42,0,.89.13,1.39.18s1,.15,1.52.24a19.56,19.56,0,0,1,2.88.71,10,10,0,0,1,1.23.52s-.59,0-1.42,0a24.45,24.45,0,0,1-3-.32,12.92,12.92,0,0,1-2.87-.83,11,11,0,0,1-1.15-.61" transform="translate(61.86 69.14)"/>
        <path class="cls-9" d="M83,546.63s.06-.12.18-.32l.23-.35a1.25,1.25,0,0,0,.19-.46c0-.16.11-.33.18-.5s.07-.4.11-.61a13,13,0,0,0,.15-1.32c0-.46,0-.92,0-1.35s0-.85,0-1.21v-.87c0-.22,0-.35,0-.35a3,3,0,0,1,.23.3,4.78,4.78,0,0,1,.49.83,4.61,4.61,0,0,1,.43,1.22,5.84,5.84,0,0,1,.16,1.46,4.62,4.62,0,0,1-.33,1.47,5.59,5.59,0,0,1-.31.65c-.16.21-.32.4-.46.56a2.78,2.78,0,0,1-.87.64c-.23.14-.38.21-.38.21" transform="translate(61.86 69.14)"/>
        <path class="cls-9" d="M81.31,545.05a4.64,4.64,0,0,1-.13-.89,6.74,6.74,0,0,1,.27-1.87,6.21,6.21,0,0,1,.64-1.78,5.22,5.22,0,0,1,.53-.8,4,4,0,0,1,.21.88,6.68,6.68,0,0,1-.09,1.91,7.15,7.15,0,0,1-.82,1.78,6.38,6.38,0,0,1-.61.77" transform="translate(61.86 69.14)"/>
        <path class="cls-9" d="M86.34,537.43l.48.32.53.38a4.78,4.78,0,0,0,.76.43L89,539l1.1.43c.72.34,1.62.55,2.44.84s1.74.48,2.59.6l1.21.23,1.11.1a8.89,8.89,0,0,0,1,.08h1.4l-.64.11-.74.12a5.21,5.21,0,0,1-1,0H96.25L95,541.44a8.05,8.05,0,0,1-1.36-.23l-1.38-.32-1.3-.44a7.09,7.09,0,0,1-1.22-.51c-.38-.18-.74-.35-1.07-.54l-.87-.59a4.71,4.71,0,0,1-1.08-1l-.34-.4" transform="translate(61.86 69.14)"/>
        <path class="cls-9" d="M86.79,535.72l.39-.1a8,8,0,0,1,1-.18,10.85,10.85,0,0,1,1.54,0,15.11,15.11,0,0,1,1.74.18,19.48,19.48,0,0,1,3,.85c.78.3,1.27.55,1.27.55s-.59-.06-1.44-.21l-3.06-.57c-.55-.08-1.09-.19-1.62-.25s-1-.12-1.42-.15-.8,0-1,0l-.41,0" transform="translate(61.86 69.14)"/>
        <path class="cls-9" d="M87.14,534.51l.39-.29c.24-.19.63-.44,1-.76s.87-.68,1.35-1.1,1-.86,1.46-1.31.93-.91,1.31-1.38a13.13,13.13,0,0,0,1.06-1.25,10.8,10.8,0,0,0,.67-.93l.26-.36s0,.14-.1.4a5.49,5.49,0,0,1-.38,1,8.42,8.42,0,0,1-.84,1.39,13.12,13.12,0,0,1-1.28,1.48,16.24,16.24,0,0,1-1.6,1.3,13.18,13.18,0,0,1-1.6,1,10.31,10.31,0,0,1-1.23.58l-.49.2" transform="translate(61.86 69.14)"/>
        <path class="cls-9" d="M85.11,534.41s0-.12-.06-.34a2,2,0,0,1,0-.87,3.64,3.64,0,0,1,.37-1.26,6.84,6.84,0,0,1,.8-1.32,10.54,10.54,0,0,1,1.13-1.18,12.37,12.37,0,0,1,1.15-.93,9.94,9.94,0,0,1,1.28-.78s-.35.41-.9,1c-.28.29-.58.65-.9,1s-.66.78-1,1.17-.63.82-.85,1.22a6.42,6.42,0,0,0-.6,1.09,4.86,4.86,0,0,0-.3.84c-.06.21-.1.33-.1.33" transform="translate(61.86 69.14)"/>
        <path class="cls-9" d="M80.33,533.86l-.52-.07a7.4,7.4,0,0,1-1.33-.28,11.69,11.69,0,0,1-1.79-.63,14.1,14.1,0,0,1-1.84-1l-.81-.62a4.28,4.28,0,0,1-.69-.65,4.49,4.49,0,0,1-.9-1.3,2.3,2.3,0,0,1-.27-1,3.58,3.58,0,0,1,0-.38l.2.35a3.44,3.44,0,0,0,.55.88c.14.17.3.35.45.55s.43.36.62.56a14.88,14.88,0,0,0,1.47,1.12c.57.33,1.1.72,1.68,1,.28.14.55.29.8.43l.76.34a10.54,10.54,0,0,0,1.19.48l.46.19" transform="translate(61.86 69.14)"/>
        <path class="cls-9" d="M74.65,527.41l.41.06a5.9,5.9,0,0,1,1.06.21,9.72,9.72,0,0,1,1.43.49A10.8,10.8,0,0,1,79,529a7.39,7.39,0,0,1,1.18,1,4.48,4.48,0,0,1,.75,1,2.52,2.52,0,0,1,.3.78c0,.18.06.3.06.3l-.23-.26a6.12,6.12,0,0,0-.57-.66,7.07,7.07,0,0,0-.92-.83,14.27,14.27,0,0,0-1.17-.88c-.44-.27-.85-.56-1.29-.79s-.83-.46-1.2-.63-.7-.31-.92-.42a3.68,3.68,0,0,1-.35-.17" transform="translate(61.86 69.14)"/>
        <path class="cls-9" d="M71.49,541.29s.62-.23,1.57-.51l.77-.22c.28-.08.53-.21.8-.31.55-.21,1.15-.42,1.74-.62s1.15-.51,1.7-.72a12.3,12.3,0,0,0,1.47-.65c.85-.39,1.48-.62,1.48-.62s-.43.38-1.17.91a9.53,9.53,0,0,1-1.36.83c-.53.27-1.12.53-1.7.81s-1.29.42-1.9.59a9,9,0,0,1-1.69.34c-1,.13-1.71.17-1.71.17" transform="translate(61.86 69.14)"/>
        <path class="cls-9" d="M71.29,537.46a7.45,7.45,0,0,1,.81-.47,9.13,9.13,0,0,1,2.06-.74c.41-.06.83-.12,1.21-.16a6.47,6.47,0,0,1,1.08,0,8.59,8.59,0,0,1,1,.12,8.27,8.27,0,0,1-1,.23c-.59.07-1.33.32-2.09.42s-1.51.3-2.1.45a9.05,9.05,0,0,1-1,.15" transform="translate(61.86 69.14)"/>
        <path class="cls-9" d="M81.75,547.56l-.28-.27c-.13-.19-.49-.38-.62-.76a3.39,3.39,0,0,1-.41-1.27,4.79,4.79,0,0,1,0-1.46,9.27,9.27,0,0,1,.45-1.41,10.95,10.95,0,0,1,1.35-2.25s-.09.48-.27,1.19c-.11.35-.22.77-.33,1.2s-.22.9-.33,1.36a7.12,7.12,0,0,0-.14,1.35c0,.21,0,.43,0,.62s.07.37.1.54a2.9,2.9,0,0,0,.31.84c.09.2.13.32.13.32" transform="translate(61.86 69.14)"/>
        <path class="cls-9" d="M86.42,543.79s0-.1-.06-.26a3.76,3.76,0,0,0-.13-.68,6.17,6.17,0,0,0-.29-.9c-.11-.33-.29-.67-.44-1l-1-1.91a9.35,9.35,0,0,1-.41-.91,7.15,7.15,0,0,1,.84.74,7.63,7.63,0,0,1,1.38,1.86,5.06,5.06,0,0,1,.37,1.12,3.51,3.51,0,0,1,0,1,2.05,2.05,0,0,1-.2.68,1.87,1.87,0,0,1-.11.26" transform="translate(61.86 69.14)"/>
        <path class="cls-9" d="M96.84,539.68a4,4,0,0,1,.67,0,6.39,6.39,0,0,1,1.32.24,5.85,5.85,0,0,1,1.19.49,2.7,2.7,0,0,1,.48.34,5.91,5.91,0,0,1-.66,0,8.18,8.18,0,0,1-1.33-.24,5.5,5.5,0,0,1-1.18-.5,2.9,2.9,0,0,1-.49-.33" transform="translate(61.86 69.14)"/>
        <path class="cls-9" d="M96.42,538.23a3,3,0,0,1,1.34,0,2.06,2.06,0,0,1,1,.6,2.73,2.73,0,0,1-1.34,0,2,2,0,0,1-1-.6" transform="translate(61.86 69.14)"/>
        <path class="cls-9" d="M90.49,526.63a3,3,0,0,1,.42-.49,2,2,0,0,1,.55-.41,7.44,7.44,0,0,1,.8-.39,5.84,5.84,0,0,1,1.7-.28,5.48,5.48,0,0,1,.79.05,5.49,5.49,0,0,1-.67.3c-.42.12-.9.37-1.44.5s-1,.31-1.41.5a4.79,4.79,0,0,1-.74.22" transform="translate(61.86 69.14)"/>
        <path class="cls-9" d="M80.65,534.55a5.84,5.84,0,0,1-.75-.11,5.14,5.14,0,0,1-1.48-.58,3.7,3.7,0,0,1-1-1,2.18,2.18,0,0,1-.3-.51,4.1,4.1,0,0,1,.66.28,13.54,13.54,0,0,1,1.24.69c.44.23.79.55,1.15.76a3.59,3.59,0,0,1,.51.42" transform="translate(61.86 69.14)"/>
        <path class="cls-9" d="M81.53,533.83a1.65,1.65,0,0,1-.26-.4,1.64,1.64,0,0,0-.21-.39,3.13,3.13,0,0,1-.42-1.73,2.34,2.34,0,0,1,.44.32,2.78,2.78,0,0,1,.63.81,3.7,3.7,0,0,1,.11.54.79.79,0,0,1-.06.44,1.73,1.73,0,0,1-.23.41" transform="translate(61.86 69.14)"/>
        <path class="cls-9" d="M85.3,535a2,2,0,0,1,.28-.48,7.81,7.81,0,0,1,.73-.9,5.44,5.44,0,0,1,.93-.83,3.13,3.13,0,0,1,.55-.32,1.68,1.68,0,0,1-.13.51,3.31,3.31,0,0,1-.63,1,5.86,5.86,0,0,1-.54.47,2.88,2.88,0,0,1-.55.32,5.42,5.42,0,0,1-.64.24" transform="translate(61.86 69.14)"/>
        <path class="cls-9" d="M85.42,536.82a3.61,3.61,0,0,1,.63,0,5.94,5.94,0,0,1,1.28.24,5,5,0,0,1,1.11.49,3,3,0,0,1,.45.33,2.78,2.78,0,0,1-.64,0,5.75,5.75,0,0,1-1.27-.24,4.43,4.43,0,0,1-1.11-.5,2.17,2.17,0,0,1-.45-.32" transform="translate(61.86 69.14)"/>
        <path class="cls-9" d="M83.18,541.86a1.83,1.83,0,0,1-.26-.46,2.84,2.84,0,0,1-.21-1,3,3,0,0,1,.17-1,2,2,0,0,1,.23-.47,1.83,1.83,0,0,1,.26.46,2.8,2.8,0,0,1,.21,1,2.75,2.75,0,0,1-.17,1,1.61,1.61,0,0,1-.23.47" transform="translate(61.86 69.14)"/>
        <path class="cls-9" d="M74.17,539.22a6.23,6.23,0,0,1,.7-.49,12.83,12.83,0,0,1,1.7-.84,13.33,13.33,0,0,1,1.77-.71,8.16,8.16,0,0,1,.9-.23,4.27,4.27,0,0,1-.63.53,10.48,10.48,0,0,1-1.62,1,15.56,15.56,0,0,1-1.89.6c-.53.12-.93.17-.93.17" transform="translate(61.86 69.14)"/>
      </g>
    </g>
  </g>
  <g id="contenedor-producto">
    <rect class="cls-10" x="108.93" y="110.42" width="403.05" height="387.91"/>
    <rect class="cls-11" x="99.66" y="99.38" width="423.36" height="410.4"/>
  </g>
  <g id="Nombre-producto">
    <text class="cls-12" transform="translate(116.25 570.53)">Crema humectante</text>
  </g>
  <g id="Precio-producto">
    <text class="cls-13" transform="translate(112.99 657.16)">$ 7.000 pesos cop</text>
    <rect class="cls-14" x="124.25" y="608.22" width="379.61" height="2.88"/>
  </g>
  <g id="Boton_comprar" data-name="Boton comprar">
    <rect class="cls-15" x="123.25" y="689.38" width="359.45" height="81.04" rx="10"/>
    <text class="cls-16" transform="translate(223.72 742.5)">Comprar</text>
  </g>
  <g id="Producto-2" data-name="Producto">
    <image width="751" height="893" transform="translate(158.86 119.33) scale(0.41)" xlink:href="../../../../121238998_2158427247626215_3123238619704834775_n.png"/>
  </g>
  <g id="Estado">
    <rect class="cls-15" x="-61.31" y="-14.11" width="185.5" height="84.17" transform="translate(51.47 101.8) rotate(-48.06)"/>
    <g>
      <path class="cls-17" d="M14.57,73.22l1.61,2.21,1.23,2.65.23,1.84-.3,1.35-1.06,2.18-3.54,4-.56-.49,1.09-1.22L5.83,74.75l-1,1.07-.56-.5,3.54-4,1.73-.89,1,0,2,.93Zm-.88.84-1.85-1.65-1.69-.82H9.43L8.33,72,6.67,73.81l7.44,11L15.65,83l.73-2.28.12-.57-.17-1.56-1.14-2.48Z" transform="translate(61.86 69.14)"/>
      <path class="cls-17" d="M24.14,70.2l.71,1.51.22,1.92-1.3,1.44H22.62L21,73.63,18.87,70.2,17.57,69H17l-.58.65.2,1.5.65,1.44-.65.19-.71-1.53-.22-1.9L17,67.92l1.16,0,1.6,1.43,2.14,3.43L23.2,74h.56l.58-.65-.2-1.49-.65-1.46Zm-8.4-6.12.19,1.54-1.55,0-.2-1.54Z" transform="translate(61.86 69.14)"/>
      <path class="cls-17" d="M27.5,60.24l-.81.9-.93-.84.43-.48.38.34-.06.07-.1-.09h-.62l-1.49.77-1.07,1.19-.6,1.56.08.63.26.23h.67L28.2,63.3l1.06,0,1.66,1.49.14,1.08-.7,1.82L29.17,69l-1.73.9-1.09,0-.88-.79.82-.9.93.83-.44.48-.37-.32.06-.07.09.08h.63l1.49-.77,1.06-1.19.61-1.57-.09-.62-.74-.66h-.66l-4.56,1.2H23.25l-1.19-1.06-.14-1.09.7-1.81,1.19-1.33,1.72-.89h1.1Z" transform="translate(61.86 69.14)"/>
      <path class="cls-17" d="M37.93,52l1.13,1.82.75,2.29L39.1,58l-.84.93-1.43.49-2-1,.51.45L38.78,64l1-1.08.56.5-2.89,3.24-.56-.5L38,64.89l-6.6-9.59-.82-.73H30l-.58.64.2,1.5.65,1.46-.65.17-.71-1.52-.22-1.91L30,53.45l1.16,0,1.1,1-.58-.8-.24-.73.3-1.42.86-1,1.35-.47,1,0,1.48.5Zm-.9.83-1.82-1.63-1.15-.38L33,51.16l-.65.72L32.11,53l.67,2,1,1.61,1.36,1.22,1.63.78,1-.34.64-.72.25-1.12-.66-2Z" transform="translate(61.86 69.14)"/>
      <path class="cls-17" d="M43.65,45.6l1.14,1.81.74,2.3-.71,1.84-.84.94-1.36.45h-1l-1.47-.49-1.55-1.39-1.14-1.82-.75-2.3.72-1.85.83-.93,1.35-.46h1l1.47.51Zm-.89.83-1.83-1.64-1.15-.37-1.05.35-.64.72-.25,1.11.67,2,1,1.61,1.82,1.62,1.15.38,1.05-.35.65-.72L44.42,50l-.66-2Z" transform="translate(61.86 69.14)"/>
      <path class="cls-17" d="M54.93,35.78l.71,1.52.22,1.91-1.3,1.45H53.41L51.8,39.22l-2.14-3.43-.81-.73-1.42,0-.61.69-.24,1.14.2,1.59L47.89,41l2.73,3.91-.49.55-.43.27-4.28-6.17-.82-.73h-.55l-.58.65.2,1.49.65,1.45-.65.19L43,41.08l-.22-1.92L44,37.72H45.2l1.11,1-.44-.62.21.46-.24-1.81.32-1.4.85-1,1.36-.46,1.07,0,1.12,1,2.13,3.43L54,39.55h.56l.58-.66-.2-1.49L54.28,36Z" transform="translate(61.86 69.14)"/>
      <path class="cls-17" d="M60.65,29.39l.71,1.51.22,1.92-1.3,1.45H59.13l-1.6-1.44L55.38,29.4l-1.3-1.17h-.55l-.58.65.2,1.49.65,1.45-.65.18-.71-1.52-.22-1.91,1.3-1.45h1.16l1.6,1.43L58.42,32l1.29,1.16h.56l.58-.65L60.65,31,60,29.56Zm-8.4-6.11.19,1.53-1.55,0-.19-1.54Z" transform="translate(61.86 69.14)"/>
      <path class="cls-17" d="M65.7,20.94l1.14,1.82.75,2.3-.72,1.84-.83.94-1.36.45-1,0-2-.94L60.19,26l-4.52-6.91-1,1.08-.56-.51,1.93-2.15,3.16,4.82-.06-.44.31-1.39.86-1L61.69,19h1l1.49.5Zm-.89.83L63,20.14l-1.15-.38-1.05.35-.65.72L59.9,22l.17,1.61,1,1.54,1.85,1.66,1.63.77,1-.34.64-.72.25-1.11-.66-2Z" transform="translate(61.86 69.14)"/>
      <path class="cls-17" d="M72.47,16.17l.71,1.52.22,1.91-1.3,1.46H71l-1.11-1-6.56-9.51-1,1.09-.56-.51L63.67,9l7,10.24.82.73h.55l.59-.65-.21-1.49-.65-1.45Z" transform="translate(61.86 69.14)"/>
      <path class="cls-17" d="M75.57,5.93l.7,1.54L76.1,9.74l-1.58,3.62.69.62,1.15.38,1-.35.67-.75.6-1.56-.25-1.84h.73l.23,2-.7,1.81-.83.94-1.36.45h-1l-1.47-.49L72.5,13.19l-1.14-1.82-.75-2.31.71-1.84,1.22-1.35L74,5.39Zm-.48.55-1-.35L73,6.48,72,7.62l-.24,1.11.66,2,1,1.61.55.49L75.42,9.5l.15-2Z" transform="translate(61.86 69.14)"/>
    </g>
  </g>
</svg>
